<svg width="24" height="34" viewBox="0 0 24 34" fill="none" xmlns="http://www.w3.org/2000/svg">
<path fill-rule="evenodd" clip-rule="evenodd" d="M17.6569 22.6568C17.2663 23.0473 16.6332 23.0473 16.2426 22.6568L6.34315 12.7573C5.95262 12.3668 5.95262 11.7336 6.34315 11.3431C6.73367 10.9526 7.36683 10.9526 7.75736 11.3431L17.6569 21.2426C18.0474 21.6331 18.0474 22.2663 17.6569 22.6568Z" fill="white"/>
<path fill-rule="evenodd" clip-rule="evenodd" d="M17.6569 11.3432C18.0474 11.7337 18.0474 12.3669 17.6569 12.7574L7.75736 22.6569C7.36683 23.0474 6.73367 23.0474 6.34315 22.6569C5.95262 22.2664 5.95262 21.6332 6.34315 21.2427L16.2426 11.3432C16.6332 10.9527 17.2663 10.9527 17.6569 11.3432Z" fill="white"/>
</svg>
