<svg width="180" height="100" viewBox="0 0 180 100" fill="none" xmlns="http://www.w3.org/2000/svg">
<g clip-path="url(#clip0_5314_2558)">
<path d="M19.4178 30.9703L0 45.7181V100H315V16.2226L281.918 75.9511L274.726 56.0416L264.658 79.638L247.397 27.2834L233.014 45.7181L208.562 0L168.288 36.8694L145.274 0L122.979 30.9703L115.068 8.84867L93.4931 63.4154L83.4247 48.6677L71.1986 75.9511L58.2534 27.2834L40.9931 45.7181L19.4178 30.9703Z" fill="url(#paint0_linear_5314_2558)"/>
<path d="M0 45.7181L19.4178 30.9703L40.9932 45.7181L58.2534 27.2834L71.1986 75.9511L83.4247 48.6677L93.4932 63.4155L115.068 8.84867L122.979 30.9703L145.274 0L168.288 36.8694L208.562 0L233.014 45.7181L247.397 27.2834L264.658 79.638L274.726 56.0416L281.918 75.9511L315 16.2226" stroke="#06B470" stroke-width="2" stroke-linecap="round"/>
</g>
<defs>
<linearGradient id="paint0_linear_5314_2558" x1="157.5" y1="-8.46394e-08" x2="157.004" y2="100" gradientUnits="userSpaceOnUse">
<stop stop-color="#1BC28A" stop-opacity="0.3"/>
<stop offset="0.866922" stop-color="#1BC28A" stop-opacity="0"/>
</linearGradient>
<clipPath id="clip0_5314_2558">
<rect width="180" height="100" fill="white"/>
</clipPath>
</defs>
</svg>
